# xmcd
#
# Track frame offsets:
#	183
#	19758
#	44328
#	59200
#	79483
#	93810
#	117773
#	139905
#	155858
#	175468
#
# Disc length: 2560 seconds
#
# Revision: 8
# Processed by: cddbd v1.5.2PL0 Copyright (c) Steve Scherf et al.
# Submitted via: audiograbber 1.83.01
#
DISCID=8e09fe0a
DTITLE=Katmandu and Peter Green - A Case For The Blues
DYEAR=1991
DGENRE=Blues
TTITLE0=Dust My Broom
TTITLE1=One More Night Without You
TTITLE2=Cranes Train Boogie
TTITLE3=Boogie All The Way
TTITLE4=Zulu Gone West
TTITLE5=Blowing All My Troubles Away
TTITLE6=Strangers Blues
TTITLE7=Sweet Sixteen
TTITLE8=Who's That Knocking
TTITLE9=The Case
EXTD=YEAR: 1991
EXTT0=
EXTT1=
EXTT2=
EXTT3=
EXTT4=
EXTT5=
EXTT6=
EXTT7=
EXTT8=
EXTT9=
PLAYORDER=
